<?xml version="1.0" standalone="no"?><!DOCTYPE svg PUBLIC "-//W3C//DTD SVG 1.1//EN" "http://www.w3.org/Graphics/SVG/1.1/DTD/svg11.dtd"><svg t="1604027378052" class="icon" viewBox="0 0 1024 1024" version="1.1" xmlns="http://www.w3.org/2000/svg" p-id="3138" xmlns:xlink="http://www.w3.org/1999/xlink" width="200" height="200"><defs><style type="text/css"></style></defs><path d="M517.4 63.4l-96.8 55.9 97.5 55.9 96.1-55.9z" fill="#212121" p-id="3139"></path><path d="M709.8 849.5l-96.9-55.9-192.3-674.2 97.5 55.8z" fill="#333333" p-id="3140"></path><path d="M614.2 119.3l192.4 674.3-96.8 55.9-191.7-674.3z" fill="#474747" p-id="3141"></path><path d="M516.6 400.8l-193 110.6 97.5 55.9 192.3-110.6z" fill="#212121" p-id="3142"></path><path d="M420.4 679.1l-96.8-55.9V511.4l97.5 55.9z" fill="#333333" p-id="3143"></path><path d="M613.4 456.7l34.5 101.4-227.5 121 0.7-111.8z" fill="#474747" p-id="3144"></path><path d="M517.5 63.7l-96.8 55.9 97.5 55.9 96.1-55.9z" fill="#212121" p-id="3145"></path><path d="M314.2 960.6l-96.8-55.9 203.3-785.1 97.5 55.9z" fill="#333333" p-id="3146"></path><path d="M614.3 119.6L411.1 904.7l-96.9 55.9 204-785.1z" fill="#474747" p-id="3147"></path></svg>
