<?xml version="1.0" standalone="no"?><!DOCTYPE svg PUBLIC "-//W3C//DTD SVG 1.1//EN" "http://www.w3.org/Graphics/SVG/1.1/DTD/svg11.dtd"><svg t="1604025422800" class="icon" viewBox="0 0 1024 1024" version="1.1" xmlns="http://www.w3.org/2000/svg" p-id="3135" xmlns:xlink="http://www.w3.org/1999/xlink" width="200" height="200"><defs><style type="text/css"></style></defs><path d="M675.6 394.1L594 441.2l82.2 47.1 81-47.1z" fill="#212121" p-id="3136"></path><path d="M675.6 677.6L594 630.4V441.2l82.2 47.1z" fill="#333333" p-id="3137"></path><path d="M757.2 441.2v189.3l-81.6 47.1 0.6-189.3z" fill="#474747" p-id="3138"></path><path d="M675.6 110.6L594 157.7l82.2 47.2 81-47.2z" fill="#212121" p-id="3139"></path><path d="M675.6 394.1L594 347V157.8l82.2 47.1z" fill="#333333" p-id="3140"></path><path d="M757.2 157.7V347l-81.6 47.1 0.6-189.2z" fill="#474747" p-id="3141"></path><path d="M594 346.4L348.7 487.3l82.2 47.1 244.7-140.8z" fill="#212121" p-id="3142"></path><path d="M430.3 628.7l-81.6-47.2v-94.2l82.2 47.1z" fill="#333333" p-id="3143"></path><path d="M675.6 393.6v94.2L430.3 628.7l0.6-94.3z" fill="#474747" p-id="3144"></path><path d="M592 630.5L346.9 772.8l82.2 47.1 244.5-142.3z" fill="#212121" p-id="3145"></path><path d="M428.5 914.2L346.9 867v-94.2l82.2 47.1z" fill="#333333" p-id="3146"></path><path d="M673.6 677.6v94.3L428.5 914.2l0.6-94.3z" fill="#474747" p-id="3147"></path><path d="M348.6 299.3l-81.7 47.1 82.2 47.2 81.1-47.2z" fill="#212121" p-id="3148"></path><path d="M348.6 959.8l-81.7-47.1V346.5l82.2 47.1z" fill="#333333" p-id="3149"></path><path d="M430.2 346.4v566.3l-81.6 47.1 0.5-566.2z" fill="#474747" p-id="3150"></path><path d="M593.5 64.2L266.8 252l82.1 47.1 326.2-187.8z" fill="#212121" p-id="3151"></path><path d="M348.4 393.4l-81.6-47.1V252l82.1 47.1z" fill="#333333" p-id="3152"></path><path d="M675.1 111.3v94.2L348.4 393.4l0.5-94.3z" fill="#474747" p-id="3153"></path></svg>
