<?xml version="1.0" standalone="no"?><!DOCTYPE svg PUBLIC "-//W3C//DTD SVG 1.1//EN" "http://www.w3.org/Graphics/SVG/1.1/DTD/svg11.dtd"><svg t="1604027366142" class="icon" viewBox="0 0 1024 1024" version="1.1" xmlns="http://www.w3.org/2000/svg" p-id="2823" xmlns:xlink="http://www.w3.org/1999/xlink" width="200" height="200"><defs><style type="text/css"></style></defs><path d="M675.5 629.7L348 818.1l81.9 47 327-188.4z" fill="#212121" p-id="2824"></path><path d="M429.4 959.1l-81.4-47v-94l81.9 47z" fill="#333333" p-id="2825"></path><path d="M756.9 676.7v94L429.4 959.1l0.5-94z" fill="#474747" p-id="2826"></path><path d="M348.5 347.3l-81.4 47 81.9 47 80.9-47z" fill="#212121" p-id="2827"></path><path d="M348.5 911.9l-81.4-47V394.3l81.9 47z" fill="#333333" p-id="2828"></path><path d="M429.9 394.3v470.6l-81.4 47 0.5-470.6z" fill="#474747" p-id="2829"></path><path d="M674.4 64.9L347.9 253l82 47 325.9-188.1z" fill="#212121" p-id="2830"></path><path d="M429.3 394l-81.4-47v-94l82 47z" fill="#333333" p-id="2831"></path><path d="M755.8 111.9v94L429.3 394l0.6-94z" fill="#474747" p-id="2832"></path></svg>
