<?xml version="1.0" standalone="no"?><!DOCTYPE svg PUBLIC "-//W3C//DTD SVG 1.1//EN" "http://www.w3.org/Graphics/SVG/1.1/DTD/svg11.dtd"><svg t="1604025359630" class="icon" viewBox="0 0 1024 1024" version="1.1" xmlns="http://www.w3.org/2000/svg" p-id="2346" xmlns:xlink="http://www.w3.org/1999/xlink" width="200" height="200"><defs><style type="text/css"></style></defs><path d="M727.5 113.9l-86.1 49.7 86.7 49.8 85.5-49.8z" fill="#212121" p-id="2347"></path><path d="M727.5 611.4l-86.1-49.7v-398l86.7 49.7z" fill="#333333" p-id="2348"></path><path d="M813.6 163.6v398.2l-86.1 49.6 0.6-398z" fill="#474747" p-id="2349"></path><path d="M641.6 562L296.7 761.2l86.7 49.7 344.3-199.2z" fill="#212121" p-id="2350"></path><path d="M382.8 910.3l-86.1-49.7v-99.4l86.7 49.7z" fill="#333333" p-id="2351"></path><path d="M727.7 611.7v99.4L382.8 910.3l0.6-99.4z" fill="#474747" p-id="2352"></path><path d="M641.6 64L296.7 263.2l86.7 49.7 344.3-199.2z" fill="#212121" p-id="2353"></path><path d="M382.8 412.3l-86.1-49.7v-99.4l86.7 49.7z" fill="#333333" p-id="2354"></path><path d="M727.7 113.7v99.4L382.8 412.3l0.6-99.4z" fill="#474747" p-id="2355"></path><path d="M296.5 263.4l-86.1 49.7 86.7 49.7 85.5-49.7z" fill="#212121" p-id="2356"></path><path d="M296.5 960l-86.1-49.7V313.2l86.7 49.6z" fill="#333333" p-id="2357"></path><path d="M382.6 313.1v597.2L296.5 960l0.6-597.2z" fill="#474747" p-id="2358"></path></svg>
