<?xml version="1.0" standalone="no"?><!DOCTYPE svg PUBLIC "-//W3C//DTD SVG 1.1//EN" "http://www.w3.org/Graphics/SVG/1.1/DTD/svg11.dtd"><svg t="1604025364919" class="icon" viewBox="0 0 1024 1024" version="1.1" xmlns="http://www.w3.org/2000/svg" p-id="2502" xmlns:xlink="http://www.w3.org/1999/xlink" width="200" height="200"><defs><style type="text/css"></style></defs><path d="M635.3 631.7L387 773.1l82.8 47.4 247.6-141.4z" fill="#212121" p-id="2503"></path><path d="M469.2 915.4L387 868v-94.9l82.8 47.4z" fill="#333333" p-id="2504"></path><path d="M717.4 679.1V774L469.2 915.4l0.6-94.9z" fill="#474747" p-id="2505"></path><path d="M635.3 348.1L306.6 535.5l82.7 47.4 328.1-187.4z" fill="#212121" p-id="2506"></path><path d="M388.7 677.8l-82.1-47.4v-94.9l82.7 47.4z" fill="#333333" p-id="2507"></path><path d="M717.4 395.5v94.9L388.7 677.8l0.6-94.9z" fill="#474747" p-id="2508"></path><path d="M388.7 296.5l-82.1 47.4 82.7 47.4 81.6-47.4z" fill="#212121" p-id="2509"></path><path d="M388.7 961.4L306.6 914V343.9l82.7 47.4z" fill="#333333" p-id="2510"></path><path d="M470.9 343.9V914l-82.2 47.4 0.6-570.1z" fill="#474747" p-id="2511"></path><path d="M635.3 62.6L306.6 248.1l82.7 47.4L717.4 110z" fill="#212121" p-id="2512"></path><path d="M388.7 390.4L306.6 343v-94.9l82.7 47.4z" fill="#333333" p-id="2513"></path><path d="M717.4 110v94.9L388.7 390.4l0.6-94.9z" fill="#474747" p-id="2514"></path></svg>
