<?xml version="1.0" standalone="no"?><!DOCTYPE svg PUBLIC "-//W3C//DTD SVG 1.1//EN" "http://www.w3.org/Graphics/SVG/1.1/DTD/svg11.dtd"><svg t="1604025412835" class="icon" viewBox="0 0 1024 1024" version="1.1" xmlns="http://www.w3.org/2000/svg" p-id="2976" xmlns:xlink="http://www.w3.org/1999/xlink" width="200" height="200"><defs><style type="text/css"></style></defs><path d="M685.1 509.1L598.6 559l87.1 50 85.8-50z" fill="#212121" p-id="2977"></path><path d="M685.1 710.1l-86.5-49.9V559.1l87.1 49.9z" fill="#333333" p-id="2978"></path><path d="M771.5 559v101.2l-86.4 49.9 0.6-101.1z" fill="#474747" p-id="2979"></path><path d="M597.3 660.1L337.7 810.8l87.1 49.9 259-150.7z" fill="#212121" p-id="2980"></path><path d="M424.2 960.6l-86.5-49.9v-99.9l87.1 49.9z" fill="#333333" p-id="2981"></path><path d="M683.8 710v99.9L424.2 960.6l0.6-99.9z" fill="#474747" p-id="2982"></path><path d="M338.9 310.3l-86.4 49.9 87 49.9 85.9-49.9z" fill="#212121" p-id="2983"></path><path d="M338.9 909.1l-86.4-49.9v-499l87 49.9z" fill="#333333" p-id="2984"></path><path d="M425.4 360.2v499l-86.5 49.9 0.6-499z" fill="#474747" p-id="2985"></path><path d="M597.5 63.4l-258.6 147 87.1 49.9 258-147z" fill="#212121" p-id="2986"></path><path d="M425.4 360.1l-86.5-49.9v-99.8l87.1 49.9z" fill="#333333" p-id="2987"></path><path d="M684 113.3v99.9L425.4 360.1l0.6-99.8z" fill="#474747" p-id="2988"></path><path d="M685.1 409.2l-173 100.4 87 49.9 172.4-100.4z" fill="#212121" p-id="2989"></path><path d="M598.5 659.3l-86.4-49.9v-99.8l87 49.9z" fill="#333333" p-id="2990"></path><path d="M771.5 459.1V559l-173 100.3 0.6-99.8z" fill="#474747" p-id="2991"></path></svg>
