<?xml version="1.0" standalone="no"?><!DOCTYPE svg PUBLIC "-//W3C//DTD SVG 1.1//EN" "http://www.w3.org/Graphics/SVG/1.1/DTD/svg11.dtd"><svg t="1604027427147" class="icon" viewBox="0 0 1024 1024" version="1.1" xmlns="http://www.w3.org/2000/svg" p-id="4074" xmlns:xlink="http://www.w3.org/1999/xlink" width="200" height="200"><defs><style type="text/css"></style></defs><path d="M685.2 62.7l-86.3 49.8 86.9 49.8 85.7-49.8z" fill="#212121" p-id="4075"></path><path d="M685.2 860.9l-86.3-49.8V112.5l86.9 49.8z" fill="#333333" p-id="4076"></path><path d="M771.5 112.5v698.6l-86.3 49.8 0.6-698.6z" fill="#474747" p-id="4077"></path><path d="M598.5 369.4L252.6 571.5l86.9 49.8 345.3-202.1z" fill="#212121" p-id="4078"></path><path d="M338.9 721l-86.3-49.9v-99.6l86.9 49.8z" fill="#333333" p-id="4079"></path><path d="M684.8 419.2v99.7L338.9 721l0.6-99.7z" fill="#474747" p-id="4080"></path><path d="M338.8 163.1l-86.3 49.8 86.9 49.8 85.7-49.8z" fill="#212121" p-id="4081"></path><path d="M338.8 961.3l-86.3-49.8V212.9l86.9 49.8z" fill="#333333" p-id="4082"></path><path d="M425.1 212.9v698.6l-86.3 49.8 0.6-698.6z" fill="#474747" p-id="4083"></path></svg>
