<?xml version="1.0" standalone="no"?><!DOCTYPE svg PUBLIC "-//W3C//DTD SVG 1.1//EN" "http://www.w3.org/Graphics/SVG/1.1/DTD/svg11.dtd"><svg t="1604027432134" class="icon" viewBox="0 0 1024 1024" version="1.1" xmlns="http://www.w3.org/2000/svg" p-id="4227" xmlns:xlink="http://www.w3.org/1999/xlink" width="200" height="200"><defs><style type="text/css"></style></defs><path d="M612.5 200.3L525 250.8l88.1 50.5 86.9-50.5z" fill="#212121" p-id="4228"></path><path d="M612.5 806.8L525 756.3l0.1-505.5 88 50.5z" fill="#333333" p-id="4229"></path><path d="M700 250.8v505.5l-87.5 50.5 0.6-505.5z" fill="#474747" p-id="4230"></path><path d="M524.8 655.3l-263 154.1 88.1 50.5 262.4-154.1z" fill="#212121" p-id="4231"></path><path d="M349.3 960.9l-87.5-50.5v-101l88.1 50.5z" fill="#333333" p-id="4232"></path><path d="M612.3 705.8v101l-263 154.1 0.6-101z" fill="#474747" p-id="4233"></path><path d="M674.7 63.1L413.8 213.6l88.1 50.5 260.3-150.5z" fill="#212121" p-id="4234"></path><path d="M501.3 365.1l-87.5-50.5v-101l88.1 50.5z" fill="#333333" p-id="4235"></path><path d="M762.2 113.6v101.1L501.3 365.1l0.6-101z" fill="#474747" p-id="4236"></path><path d="M349.3 656.5l-87.5 50.6 88.1 50.5 86.8-50.5z" fill="#212121" p-id="4237"></path><path d="M349.3 858.6l-87.5-50.5v-101l88.1 50.5z" fill="#333333" p-id="4238"></path><path d="M436.7 707.1v101l-87.4 50.5 0.6-101z" fill="#474747" p-id="4239"></path></svg>
