<?xml version="1.0" standalone="no"?><!DOCTYPE svg PUBLIC "-//W3C//DTD SVG 1.1//EN" "http://www.w3.org/Graphics/SVG/1.1/DTD/svg11.dtd"><svg t="1604027446479" class="icon" viewBox="0 0 1024 1024" version="1.1" xmlns="http://www.w3.org/2000/svg" p-id="4692" xmlns:xlink="http://www.w3.org/1999/xlink" width="200" height="200"><defs><style type="text/css"></style></defs><path d="M557.4 433L466 485.8l92 52.7 90.8-52.7z" fill="#212121" p-id="4693"></path><path d="M649.1 802.6l-91.4-52.7L466 485.8l92 52.7z" fill="#333333" p-id="4694"></path><path d="M648.8 485.8l91.7 264.1-91.4 52.7L558 538.5z" fill="#474747" p-id="4695"></path><path d="M466.3 380L283 485.8l92 52.7 182.6-105.7z" fill="#212121" p-id="4696"></path><path d="M374.4 644L283 591.3V485.8l92 52.7z" fill="#333333" p-id="4697"></path><path d="M557.6 432.8v105.5L374.4 644l0.6-105.5z" fill="#474747" p-id="4698"></path><path d="M374.6 115.9l-91.3 52.8 92 52.7 90.7-52.7z" fill="#212121" p-id="4699"></path><path d="M374.6 961l-91.3-52.8V168.7l92 52.7z" fill="#333333" p-id="4700"></path><path d="M466 168.7v739.6L374.6 961l0.7-739.6z" fill="#474747" p-id="4701"></path><path d="M649.6 63l-91.4 52.8 92 52.7 90.8-52.7z" fill="#212121" p-id="4702"></path><path d="M557.9 432.7L466.5 380l91.7-264.2 92 52.7z" fill="#333333" p-id="4703"></path><path d="M741 115.8L649.2 380l-91.3 52.7 92.3-264.2z" fill="#474747" p-id="4704"></path></svg>
