<?xml version="1.0" standalone="no"?><!DOCTYPE svg PUBLIC "-//W3C//DTD SVG 1.1//EN" "http://www.w3.org/Graphics/SVG/1.1/DTD/svg11.dtd"><svg t="1604027450694" class="icon" viewBox="0 0 1024 1024" version="1.1" xmlns="http://www.w3.org/2000/svg" p-id="4848" xmlns:xlink="http://www.w3.org/1999/xlink" width="200" height="200"><defs><style type="text/css"></style></defs><path d="M597.6 64.3l-86 49.7 86.6 49.7 85.5-49.7z" fill="#212121" p-id="4849"></path><path d="M770.4 661.3l-86.1-49.6L511.6 114l86.6 49.7z" fill="#333333" p-id="4850"></path><path d="M683.7 114l172.7 497.7-86 49.6-172.2-497.6z" fill="#474747" p-id="4851"></path><path d="M597.1 64.5l-86 49.7 86.6 49.7 85.5-49.7z" fill="#212121" p-id="4852"></path><path d="M511.6 808.6l-86-49.6 85.5-644.8 86.6 49.7z" fill="#333333" p-id="4853"></path><path d="M683.2 114.2L597.6 759l-86 49.6 86.1-644.7z" fill="#474747" p-id="4854"></path><path d="M253.6 162.3l-86 49.7 86.6 49.6 85.5-49.6z" fill="#212121" p-id="4855"></path><path d="M511.9 808.6l-86-49.7L167.6 212l86.6 49.6z" fill="#333333" p-id="4856"></path><path d="M339.7 212L598 759l-86.1 49.6-257.7-547z" fill="#474747" p-id="4857"></path><path d="M254 162.3L168 212l86.6 49.6L340 212z" fill="#212121" p-id="4858"></path><path d="M254 959.7L168 910V212l86.6 49.6z" fill="#333333" p-id="4859"></path><path d="M340 212v698l-86 49.7 0.6-698.1z" fill="#474747" p-id="4860"></path></svg>
