<?xml version="1.0" standalone="no"?><!DOCTYPE svg PUBLIC "-//W3C//DTD SVG 1.1//EN" "http://www.w3.org/Graphics/SVG/1.1/DTD/svg11.dtd"><svg t="1604025046595" class="icon" viewBox="0 0 1024 1024" version="1.1" xmlns="http://www.w3.org/2000/svg" p-id="2193" xmlns:xlink="http://www.w3.org/1999/xlink" width="200" height="200"><defs><style type="text/css"></style></defs><path d="M635.2 61.6l-81.9 47.3 82.5 47.3 81.3-47.3z" fill="#212121" p-id="2194"></path><path d="M635.2 820.9l-81.9-47.3V108.9l82.5 47.3z" fill="#333333" p-id="2195"></path><path d="M717.1 108.9v664.7l-81.9 47.3 0.6-664.7z" fill="#474747" p-id="2196"></path><path d="M388.8 203.1l-81.9 47.3 82.5 47.3 81.3-47.3z" fill="#212121" p-id="2197"></path><path d="M634.8 818.5l-81.9-47.3-246-520.8 82.5 47.3z" fill="#333333" p-id="2198"></path><path d="M470.7 250.4l246 520.9-81.9 47.2-245.4-520.8z" fill="#474747" p-id="2199"></path><path d="M389.1 203.1l-81.9 47.3 82.5 47.3 81.3-47.3z" fill="#212121" p-id="2200"></path><path d="M389.1 962.4l-81.9-47.3V250.4l82.5 47.3z" fill="#333333" p-id="2201"></path><path d="M471 250.4v664.7l-81.9 47.3 0.6-664.7z" fill="#474747" p-id="2202"></path></svg>
