<?xml version="1.0" standalone="no"?><!DOCTYPE svg PUBLIC "-//W3C//DTD SVG 1.1//EN" "http://www.w3.org/Graphics/SVG/1.1/DTD/svg11.dtd"><svg t="1604025032464" class="icon" viewBox="0 0 1024 1024" version="1.1" xmlns="http://www.w3.org/2000/svg" p-id="1878" xmlns:xlink="http://www.w3.org/1999/xlink" width="200" height="200"><defs><style type="text/css"></style></defs><path d="M740.1 116.9L649 169.5l91.8 52.6 90.5-52.6z" fill="#212121" p-id="1879"></path><path d="M740.1 643.6L649 591V169.5l91.8 52.6z" fill="#333333" p-id="1880"></path><path d="M831.3 169.5V591l-91.2 52.6 0.7-421.5z" fill="#474747" p-id="1881"></path><path d="M649.1 591.2L283.9 802.1l91.8 52.6 364.6-210.9z" fill="#212121" p-id="1882"></path><path d="M375.1 960l-91.2-52.6 0.1-105.3 91.7 52.6z" fill="#333333" p-id="1883"></path><path d="M740.3 643.8v105.3L375.1 960l0.6-105.3z" fill="#474747" p-id="1884"></path><path d="M649.1 64L283.9 274.9l91.8 52.6 364.6-210.9z" fill="#212121" p-id="1885"></path><path d="M375.1 432.8l-91.2-52.6 0.1-105.3 91.7 52.6z" fill="#333333" p-id="1886"></path><path d="M740.3 116.6v105.3L375.1 432.8l0.6-105.3z" fill="#474747" p-id="1887"></path><path d="M283.9 380.5l-91.2 52.6 91.8 52.6 90.5-52.6z" fill="#212121" p-id="1888"></path><path d="M283.9 907.2l-91.2-52.6V433.1l91.8 52.6z" fill="#333333" p-id="1889"></path><path d="M375 433.1v421.5l-91.1 52.6 0.6-421.5z" fill="#474747" p-id="1890"></path></svg>
