<?xml version="1.0" standalone="no"?><!DOCTYPE svg PUBLIC "-//W3C//DTD SVG 1.1//EN" "http://www.w3.org/Graphics/SVG/1.1/DTD/svg11.dtd"><svg t="1604027464789" class="icon" viewBox="0 0 1024 1024" version="1.1" xmlns="http://www.w3.org/2000/svg" p-id="5313" xmlns:xlink="http://www.w3.org/1999/xlink" width="200" height="200"><defs><style type="text/css"></style></defs><path d="M594.5 441.6L347.8 583.2l82.3 47.2 246.1-141.7z" fill="#212121" p-id="5314"></path><path d="M429.5 724.7l-81.7-47.2v-94.3l82.3 47.2z" fill="#333333" p-id="5315"></path><path d="M676.2 488.7v94.4L429.5 724.7l0.6-94.3z" fill="#474747" p-id="5316"></path><path d="M676.2 110.8l-81.7 47.1 82.2 47.1 81.1-47.1z" fill="#212121" p-id="5317"></path><path d="M676.2 488.4l-81.7-47.1V157.9l82.2 47.1z" fill="#333333" p-id="5318"></path><path d="M757.8 157.9v283.4l-81.6 47.1 0.5-283.4z" fill="#474747" p-id="5319"></path><path d="M593.7 63.6L347.8 205.2l82.3 47.2 245.3-141.6z" fill="#212121" p-id="5320"></path><path d="M429.5 346.7l-81.7-47.2v-94.3l82.3 47.2z" fill="#333333" p-id="5321"></path><path d="M675.4 110.8v94.3L429.5 346.7l0.6-94.3z" fill="#474747" p-id="5322"></path><path d="M347.8 299.6l-81.6 47.1 82.2 47.2 81.1-47.2z" fill="#212121" p-id="5323"></path><path d="M347.8 960.4l-81.6-47.2V346.8l82.2 47.1z" fill="#333333" p-id="5324"></path><path d="M429.5 346.7v566.6l-81.7 47.1 0.6-566.5z" fill="#474747" p-id="5325"></path></svg>
