<?xml version="1.0" standalone="no"?><!DOCTYPE svg PUBLIC "-//W3C//DTD SVG 1.1//EN" "http://www.w3.org/Graphics/SVG/1.1/DTD/svg11.dtd"><svg t="1604027468809" class="icon" viewBox="0 0 1024 1024" version="1.1" xmlns="http://www.w3.org/2000/svg" p-id="5469" xmlns:xlink="http://www.w3.org/1999/xlink" width="200" height="200"><defs><style type="text/css"></style></defs><path d="M684.3 109.4l-86 49.6 86.6 49.6 85.3-49.6z" fill="#212121" p-id="5470"></path><path d="M684.3 909.4l-86-49.6 0.1-700.8 86.5 49.6z" fill="#333333" p-id="5471"></path><path d="M770.2 159v700.8l-85.9 49.6 0.6-700.8z" fill="#474747" p-id="5472"></path><path d="M598.3 561.8L253.9 760.7l86.6 49.6 343.7-198.8z" fill="#212121" p-id="5473"></path><path d="M339.9 909.6l-86-49.7 0.1-99.2 86.5 49.6z" fill="#333333" p-id="5474"></path><path d="M684.2 611.5v99.2L339.9 909.6l0.6-99.3z" fill="#474747" p-id="5475"></path><path d="M598.3 64.7L253.9 263.6l86.6 49.6 343.7-198.8z" fill="#212121" p-id="5476"></path><path d="M339.9 412.5l-86-49.7 0.1-99.2 86.5 49.6z" fill="#333333" p-id="5477"></path><path d="M684.2 114.4v99.2L339.9 412.5l0.6-99.3z" fill="#474747" p-id="5478"></path><path d="M253.9 363.1l-86 49.7 86.6 49.6 85.3-49.6z" fill="#212121" p-id="5479"></path><path d="M253.9 859.8l-86-49.6V412.8l86.6 49.6z" fill="#333333" p-id="5480"></path><path d="M339.8 412.8v397.4l-85.9 49.6 0.6-397.4z" fill="#474747" p-id="5481"></path><path d="M770.1 760.8l-85.9 49.6 86.5 49.6 85.4-49.6z" fill="#212121" p-id="5482"></path><path d="M770.1 959.3l-85.9-49.7v-99.2l86.5 49.6z" fill="#333333" p-id="5483"></path><path d="M856.1 810.4v99.3l-86 49.6 0.6-99.3z" fill="#474747" p-id="5484"></path></svg>
