<?xml version="1.0" standalone="no"?><!DOCTYPE svg PUBLIC "-//W3C//DTD SVG 1.1//EN" "http://www.w3.org/Graphics/SVG/1.1/DTD/svg11.dtd"><svg t="1604027473409" class="icon" viewBox="0 0 1024 1024" version="1.1" xmlns="http://www.w3.org/2000/svg" p-id="5628" xmlns:xlink="http://www.w3.org/1999/xlink" width="200" height="200"><defs><style type="text/css"></style></defs><path d="M593.1 535.7L512 582.5l81.7 46.9 80.6-46.9z" fill="#212121" p-id="5629"></path><path d="M674.7 770l-81.2-46.9L512 582.5l81.7 46.9z" fill="#333333" p-id="5630"></path><path d="M674.3 582.5l81.6 140.6-81.2 46.9-81-140.6z" fill="#474747" p-id="5631"></path><path d="M593 440.1L349.2 582.5l81.7 46.9 243.2-142.5z" fill="#212121" p-id="5632"></path><path d="M430.3 723.1l-81.1-46.9v-93.7l81.7 46.9z" fill="#333333" p-id="5633"></path><path d="M674.1 486.9v93.8L430.3 723.1l0.6-93.7z" fill="#474747" p-id="5634"></path><path d="M674.1 112.9L593 159.7l81.7 46.9 80.6-46.9z" fill="#212121" p-id="5635"></path><path d="M674.1 488.3L593 441.4V159.7l81.7 46.9z" fill="#333333" p-id="5636"></path><path d="M755.3 159.7v281.7l-81.2 46.9 0.6-281.7z" fill="#474747" p-id="5637"></path><path d="M593 64.3L349.2 206.8l81.7 46.8 243.2-142.4z" fill="#212121" p-id="5638"></path><path d="M430.3 347.4l-81.1-46.9v-93.7l81.7 46.8z" fill="#333333" p-id="5639"></path><path d="M674.1 111.2v93.7L430.3 347.4l0.6-93.8z" fill="#474747" p-id="5640"></path><path d="M349.3 299.1l-81.2 46.8 81.8 46.9 80.6-46.9z" fill="#212121" p-id="5641"></path><path d="M349.3 959.7l-81.2-46.9V345.9l81.8 46.9z" fill="#333333" p-id="5642"></path><path d="M430.5 345.9v566.9l-81.2 46.9 0.6-566.9z" fill="#474747" p-id="5643"></path></svg>
