<?xml version="1.0" standalone="no"?><!DOCTYPE svg PUBLIC "-//W3C//DTD SVG 1.1//EN" "http://www.w3.org/Graphics/SVG/1.1/DTD/svg11.dtd"><svg t="1604025381781" class="icon" viewBox="0 0 1024 1024" version="1.1" xmlns="http://www.w3.org/2000/svg" p-id="2658" xmlns:xlink="http://www.w3.org/1999/xlink" width="200" height="200"><defs><style type="text/css"></style></defs><path d="M634.5 440.8l-81.6 47.1 82.2 47.2 81.1-47.2z" fill="#212121" p-id="2659"></path><path d="M634.5 724.3l-81.6-47.1V487.9l82.2 47.2z" fill="#333333" p-id="2660"></path><path d="M716.2 487.9v189.3l-81.7 47.1 0.6-189.2z" fill="#474747" p-id="2661"></path><path d="M635.8 348.8l-327 188.1L391 584l326.4-188z" fill="#212121" p-id="2662"></path><path d="M390.4 678.3l-81.6-47.2v-94.2L391 584z" fill="#333333" p-id="2663"></path><path d="M717.4 396v94.2l-327 188.1 0.6-94.3z" fill="#474747" p-id="2664"></path><path d="M553 676.9L306.6 818.5l82.1 47.1 246-141.6z" fill="#212121" p-id="2665"></path><path d="M388.2 959.8l-81.6-47.1v-94.2l82.1 47.1z" fill="#333333" p-id="2666"></path><path d="M634.7 724v94.3L388.2 959.8l0.5-94.2z" fill="#474747" p-id="2667"></path><path d="M634.5 64.2L389.2 205l82.2 47.1 244.8-140.8z" fill="#212121" p-id="2668"></path><path d="M470.9 346.4l-81.7-47.2V205l82.2 47.1z" fill="#333333" p-id="2669"></path><path d="M716.2 111.3v94.2L470.9 346.4l0.5-94.3z" fill="#474747" p-id="2670"></path><path d="M390.4 299.9L308.8 347l82.2 47.1 81-47.1z" fill="#212121" p-id="2671"></path><path d="M390.4 583.4l-81.6-47.2V347l82.2 47.1z" fill="#333333" p-id="2672"></path><path d="M472 347v189.3l-81.6 47.1 0.6-189.3z" fill="#474747" p-id="2673"></path></svg>
