<?xml version="1.0" standalone="no"?><!DOCTYPE svg PUBLIC "-//W3C//DTD SVG 1.1//EN" "http://www.w3.org/Graphics/SVG/1.1/DTD/svg11.dtd"><svg t="1604027483665" class="icon" viewBox="0 0 1024 1024" version="1.1" xmlns="http://www.w3.org/2000/svg" p-id="5940" xmlns:xlink="http://www.w3.org/1999/xlink" width="200" height="200"><defs><style type="text/css"></style></defs><path d="M616.1 661.4l-103.3 59.7 104 59.7 102.6-59.7z" fill="#212121" p-id="5941"></path><path d="M616.1 900.1l-103.3-59.7V721.1l104 59.7z" fill="#333333" p-id="5942"></path><path d="M719.4 721.1v119.4l-103.3 59.6 0.7-119.3z" fill="#474747" p-id="5943"></path><path d="M512.6 721.2l-103.3 59.7 104.1 59.6L616 780.9z" fill="#212121" p-id="5944"></path><path d="M512.6 959.9l-103.3-59.7V780.9l104.1 59.6z" fill="#333333" p-id="5945"></path><path d="M616 780.9v119.3l-103.4 59.7 0.8-119.4z" fill="#474747" p-id="5946"></path><path d="M822.1 64.1l-103.4 59.7 104.1 59.7 102.6-59.7z" fill="#212121" p-id="5947"></path><path d="M616.1 780.6L512.7 721l206-597.2 104.1 59.7z" fill="#333333" p-id="5948"></path><path d="M925.4 123.8L719.4 721l-103.3 59.6 206.7-597.1z" fill="#474747" p-id="5949"></path><path d="M201.9 184L98.6 243.6l104 59.7 102.7-59.7z" fill="#212121" p-id="5950"></path><path d="M512.6 840l-103.3-59.6L98.6 243.7l104 59.6z" fill="#333333" p-id="5951"></path><path d="M305.3 243.6l310.6 536.8L512.6 840l-310-536.7z" fill="#474747" p-id="5952"></path></svg>
