<?xml version="1.0" standalone="no"?><!DOCTYPE svg PUBLIC "-//W3C//DTD SVG 1.1//EN" "http://www.w3.org/Graphics/SVG/1.1/DTD/svg11.dtd"><svg t="1604024862552" class="icon" viewBox="0 0 1024 1024" version="1.1" xmlns="http://www.w3.org/2000/svg" p-id="1572" xmlns:xlink="http://www.w3.org/1999/xlink" width="200" height="200"><defs><style type="text/css"></style></defs><path d="M727.9 66l-86.5 49.9 87.1 49.9 85.9-49.9z" fill="#212121" p-id="1573"></path><path d="M643.6 800.3l-86.5-49.9 84.3-634.5 87.1 49.9z" fill="#333333" p-id="1574"></path><path d="M814.4 115.9L730 750.4l-86.4 49.9 84.9-634.5z" fill="#474747" p-id="1575"></path><path d="M560 463.5l-85.9 49.6 86.5 49.5 85.2-49.5z" fill="#212121" p-id="1576"></path><path d="M645.9 809.7L560 760.2l-85.9-247.1 86.5 49.5z" fill="#333333" p-id="1577"></path><path d="M645.8 513.1l85.9 247.1-85.8 49.5-85.3-247.1z" fill="#474747" p-id="1578"></path><path d="M557.3 463l-88.1 50.9 88.7 50.9 87.6-50.9z" fill="#212121" p-id="1579"></path><path d="M386 956.3l-88.2-50.9L469.2 514l88.7 50.8z" fill="#333333" p-id="1580"></path><path d="M645.5 513.9L474.1 905.4 386 956.3l171.9-391.5z" fill="#474747" p-id="1581"></path><path d="M297.8 213.2l-88.2 50.9 88.8 50.9 87.6-50.9z" fill="#212121" p-id="1582"></path><path d="M386 958l-88.2-50.9-88.2-643 88.8 50.9z" fill="#333333" p-id="1583"></path><path d="M386 264.1l88.1 643.1L386 958l-87.6-643z" fill="#474747" p-id="1584"></path></svg>
