<?xml version="1.0" standalone="no"?><!DOCTYPE svg PUBLIC "-//W3C//DTD SVG 1.1//EN" "http://www.w3.org/Graphics/SVG/1.1/DTD/svg11.dtd"><svg t="1604027502198" class="icon" viewBox="0 0 1024 1024" version="1.1" xmlns="http://www.w3.org/2000/svg" p-id="6561" xmlns:xlink="http://www.w3.org/1999/xlink" width="200" height="200"><defs><style type="text/css"></style></defs><path d="M563 482.4L459.8 542l104 59.6L666.3 542z" fill="#212121" p-id="6562"></path><path d="M666.3 900.1L563 840.5 459.8 542l104 59.6z" fill="#333333" p-id="6563"></path><path d="M666.3 542l103.3 298.5-103.3 59.6-102.5-298.5z" fill="#474747" p-id="6564"></path><path d="M563.7 362.9l-103.3 59.6 104 59.6L667 422.5z" fill="#212121" p-id="6565"></path><path d="M563.7 601.3l-103.3-59.6V422.5l104 59.6z" fill="#333333" p-id="6566"></path><path d="M667 422.5l-0.1 119.2-103.2 59.6 0.7-119.2z" fill="#474747" p-id="6567"></path><path d="M460.3 542.1l-103.2 59.6 104 59.6 102.5-59.6z" fill="#212121" p-id="6568"></path><path d="M355.3 960.2l-103.2-59.6 105-298.9 104 59.6z" fill="#333333" p-id="6569"></path><path d="M563.6 601.7l-105 298.9-103.3 59.6 105.8-298.9z" fill="#474747" p-id="6570"></path><path d="M460.3 422.6l-103.2 59.6L461 541.8l102.6-59.6z" fill="#212121" p-id="6571"></path><path d="M460.3 661l-103.2-59.6V482.2L461 541.8z" fill="#333333" p-id="6572"></path><path d="M563.6 482.2v119.3L460.3 661l0.7-119.2z" fill="#474747" p-id="6573"></path><path d="M668.7 63.8l-103.3 59.6 104 59.7 102.5-59.7z" fill="#212121" p-id="6574"></path><path d="M563.7 481.9l-103.3-59.6 105-298.8 104 59.6z" fill="#333333" p-id="6575"></path><path d="M771.9 123.4l-105 299-103.2 59.5 105.7-298.8z" fill="#474747" p-id="6576"></path><path d="M357 123.6l-103.2 59.6 103.9 59.6 102.6-59.6z" fill="#212121" p-id="6577"></path><path d="M460.3 541.3L357 481.7 253.8 183.2l103.9 59.6z" fill="#333333" p-id="6578"></path><path d="M460.3 183.2l103.2 298.5-103.2 59.6-102.6-298.5z" fill="#474747" p-id="6579"></path></svg>
