<?xml version="1.0" standalone="no"?><!DOCTYPE svg PUBLIC "-//W3C//DTD SVG 1.1//EN" "http://www.w3.org/Graphics/SVG/1.1/DTD/svg11.dtd"><svg t="1604025431808" class="icon" viewBox="0 0 1024 1024" version="1.1" xmlns="http://www.w3.org/2000/svg" p-id="3297" xmlns:xlink="http://www.w3.org/1999/xlink" width="200" height="200"><defs><style type="text/css"></style></defs><path d="M556.3 448.4l-88.3 51 88.9 51 87.8-51z" fill="#212121" p-id="3298"></path><path d="M556.3 958.9l-88.3-51V499.4l88.9 51z" fill="#333333" p-id="3299"></path><path d="M644.7 499.4v408.5l-88.4 51 0.6-408.5z" fill="#474747" p-id="3300"></path><path d="M689.2 65.1l-88.3 51 88.9 51 87.7-51z" fill="#212121" p-id="3301"></path><path d="M600.2 524.3l-88.4-51 89.1-357.2 88.9 51z" fill="#333333" p-id="3302"></path><path d="M777.5 116.1l-89 357.2-88.3 51 89.6-357.2z" fill="#474747" p-id="3303"></path><path d="M334.8 167.5l-88.3 51 88.9 51 87.7-51z" fill="#212121" p-id="3304"></path><path d="M511.7 575.1l-88.3-51-176.9-305.6 88.9 51z" fill="#333333" p-id="3305"></path><path d="M423.1 218.5l177 305.6-88.4 51-176.3-305.6z" fill="#474747" p-id="3306"></path></svg>
