<?xml version="1.0" standalone="no"?><!DOCTYPE svg PUBLIC "-//W3C//DTD SVG 1.1//EN" "http://www.w3.org/Graphics/SVG/1.1/DTD/svg11.dtd"><svg t="1604027512476" class="icon" viewBox="0 0 1024 1024" version="1.1" xmlns="http://www.w3.org/2000/svg" p-id="6876" xmlns:xlink="http://www.w3.org/1999/xlink" width="200" height="200"><defs><style type="text/css"></style></defs><path d="M648.3 592L284.9 801.7l91.5 52.4 362.7-209.7z" fill="#212121" p-id="6877"></path><path d="M375.7 959l-90.8-52.4V801.7l91.5 52.4z" fill="#333333" p-id="6878"></path><path d="M739.1 644.4v104.9L375.7 959l0.7-104.9z" fill="#474747" p-id="6879"></path><path d="M648.4 170.1l-90.8 52.4 91.4 52.4 90.2-52.4z" fill="#212121" p-id="6880"></path><path d="M375.6 852.9l-90.8-52.5 272.8-577.9 91.4 52.4z" fill="#333333" p-id="6881"></path><path d="M739.2 222.5L466.4 800.4l-90.8 52.5 273.4-578z" fill="#474747" p-id="6882"></path><path d="M648.3 65L284.9 274.7l91.5 52.5 362.7-209.8z" fill="#212121" p-id="6883"></path><path d="M375.7 432l-90.8-52.4V274.7l91.5 52.5z" fill="#333333" p-id="6884"></path><path d="M739.1 117.4v104.9L375.7 432l0.7-104.8z" fill="#474747" p-id="6885"></path></svg>
