<?xml version="1.0" standalone="no"?><!DOCTYPE svg PUBLIC "-//W3C//DTD SVG 1.1//EN" "http://www.w3.org/Graphics/SVG/1.1/DTD/svg11.dtd"><svg t="1604027319087" class="icon" viewBox="0 0 1024 1024" version="1.1" xmlns="http://www.w3.org/2000/svg" p-id="1572" xmlns:xlink="http://www.w3.org/1999/xlink" width="200" height="200"><defs><style type="text/css"></style></defs><path d="M634 64.1l-81.8 47.2 82.3 47.1 81.2-47.1z" fill="#212121" p-id="1573"></path><path d="M634 820.8l-81.8-47.2 0.1-662.3 82.2 47.1z" fill="#333333" p-id="1574"></path><path d="M715.7 111.3v662.3L634 820.8l0.5-662.4z" fill="#474747" p-id="1575"></path><path d="M552 675.9l-163.7 96.7 82.3 47.2 163.2-96.7z" fill="#212121" p-id="1576"></path><path d="M470.1 914.2L388.3 867v-94.4l82.3 47.2z" fill="#333333" p-id="1577"></path><path d="M633.8 723.1v94.4l-163.7 96.7 0.5-94.4z" fill="#474747" p-id="1578"></path><path d="M390 298.5l-81.7 47.2 82.3 47.2 81.2-47.2z" fill="#212121" p-id="1579"></path><path d="M390 959.9l-81.7-47.2v-567l82.3 47.2z" fill="#333333" p-id="1580"></path><path d="M471.8 345.7l-0.1 567.1-81.7 47.1 0.6-567z" fill="#474747" p-id="1581"></path><path d="M552 109.8L308.3 250.4l82.3 47.2L633.8 157z" fill="#212121" p-id="1582"></path><path d="M390 392l-81.7-47.2v-94.4l82.3 47.2z" fill="#333333" p-id="1583"></path><path d="M633.8 157v94.4L390 392l0.6-94.4z" fill="#474747" p-id="1584"></path></svg>
