<?xml version="1.0" standalone="no"?><!DOCTYPE svg PUBLIC "-//W3C//DTD SVG 1.1//EN" "http://www.w3.org/Graphics/SVG/1.1/DTD/svg11.dtd"><svg t="1604027349147" class="icon" viewBox="0 0 1024 1024" version="1.1" xmlns="http://www.w3.org/2000/svg" p-id="2355" xmlns:xlink="http://www.w3.org/1999/xlink" width="200" height="200"><defs><style type="text/css"></style></defs><path d="M634.1 631.2L308.2 819.5l82.3 47.2 325.3-188.3z" fill="#212121" p-id="2356"></path><path d="M389.9 961.2L308.2 914v-94.5l82.3 47.2z" fill="#333333" p-id="2357"></path><path d="M715.8 678.4v94.4L389.9 961.2l0.6-94.5z" fill="#474747" p-id="2358"></path><path d="M389.9 583.5l-81.7 47.2 82.3 47.2 81.2-47.2z" fill="#212121" p-id="2359"></path><path d="M389.9 961.2L308.2 914V630.7l82.3 47.2z" fill="#333333" p-id="2360"></path><path d="M471.7 630.7V914l-81.8 47.2 0.6-283.3z" fill="#474747" p-id="2361"></path><path d="M634.1 62.8L552.3 110l82.3 47.3 81.2-47.3z" fill="#212121" p-id="2362"></path><path d="M634.1 535.9l-81.8-47.2V110.1l82.3 47.2z" fill="#333333" p-id="2363"></path><path d="M715.8 110v378.7l-81.7 47.2 0.5-378.6z" fill="#474747" p-id="2364"></path><path d="M552.1 394.7L308.2 537.3l82.3 47.2 243.3-142.6z" fill="#212121" p-id="2365"></path><path d="M389.9 678.9l-81.7-47.2v-94.4l82.3 47.2z" fill="#333333" p-id="2366"></path><path d="M633.8 441.9v94.5L389.9 678.9l0.6-94.4z" fill="#474747" p-id="2367"></path><path d="M552.1 110.5L308.2 251.2l82.3 47.2 243.3-140.7z" fill="#212121" p-id="2368"></path><path d="M389.9 392.8l-81.7-47.2v-94.4l82.3 47.2z" fill="#333333" p-id="2369"></path><path d="M633.8 157.7v94.5L389.9 392.8l0.6-94.4z" fill="#474747" p-id="2370"></path></svg>
