<?xml version="1.0" standalone="no"?><!DOCTYPE svg PUBLIC "-//W3C//DTD SVG 1.1//EN" "http://www.w3.org/Graphics/SVG/1.1/DTD/svg11.dtd"><svg t="1604027345077" class="icon" viewBox="0 0 1024 1024" version="1.1" xmlns="http://www.w3.org/2000/svg" p-id="2199" xmlns:xlink="http://www.w3.org/1999/xlink" width="200" height="200"><defs><style type="text/css"></style></defs><path d="M634 64.1l-81.8 47.2 82.3 47.1 81.2-47.1z" fill="#212121" p-id="2200"></path><path d="M634 820.8l-81.8-47.2 0.1-662.3 82.2 47.1z" fill="#333333" p-id="2201"></path><path d="M715.7 111.3v662.3L634 820.8l0.5-662.4z" fill="#474747" p-id="2202"></path><path d="M552 675.9L308.3 818.4l82.3 47.2 243.2-142.5z" fill="#212121" p-id="2203"></path><path d="M390 959.9l-81.7-47.2v-94.3l82.3 47.2z" fill="#333333" p-id="2204"></path><path d="M633.8 723.1v94.4L390 959.9l0.6-94.3z" fill="#474747" p-id="2205"></path><path d="M552 393.8L308.3 536.3l82.3 47.2L633.8 441z" fill="#212121" p-id="2206"></path><path d="M390 677.9l-81.7-47.2v-94.4l82.3 47.2z" fill="#333333" p-id="2207"></path><path d="M633.8 441v94.4L390 677.9l0.6-94.4z" fill="#474747" p-id="2208"></path><path d="M552 109.8L308.3 250.4l82.3 47.2L633.8 157z" fill="#212121" p-id="2209"></path><path d="M390 392l-81.7-47.2v-94.4l82.3 47.2z" fill="#333333" p-id="2210"></path><path d="M633.8 157v94.4L390 392l0.6-94.4z" fill="#474747" p-id="2211"></path></svg>
