<?xml version="1.0" standalone="no"?><!DOCTYPE svg PUBLIC "-//W3C//DTD SVG 1.1//EN" "http://www.w3.org/Graphics/SVG/1.1/DTD/svg11.dtd"><svg t="1604027333384" class="icon" viewBox="0 0 1024 1024" version="1.1" xmlns="http://www.w3.org/2000/svg" p-id="1887" xmlns:xlink="http://www.w3.org/1999/xlink" width="200" height="200"><defs><style type="text/css"></style></defs><path d="M640 64.8l-85.8 49.5 86.4 49.6 85.2-49.6z" fill="#212121" p-id="1888"></path><path d="M640 959.2l-85.8-49.5 0.1-795.4 86.3 49.6z" fill="#333333" p-id="1889"></path><path d="M725.8 114.3v795.4L640 959.2l0.6-795.3z" fill="#474747" p-id="1890"></path><path d="M554 410.9L298.2 560.5l86.3 49.5 255.3-149.5z" fill="#212121" p-id="1891"></path><path d="M384 709.1l-85.8-49.5v-99.1l86.3 49.5z" fill="#333333" p-id="1892"></path><path d="M639.8 460.5v99.1L384 709.1l0.5-99.1z" fill="#474747" p-id="1893"></path><path d="M384 214.9l-85.8 49.5 86.3 49.5 85.3-49.5z" fill="#212121" p-id="1894"></path><path d="M384 707.1l-85.8-49.5V264.4l86.3 49.5z" fill="#333333" p-id="1895"></path><path d="M469.8 264.4l-0.1 393.2-85.7 49.5 0.5-393.2z" fill="#474747" p-id="1896"></path></svg>
