<?xml version="1.0" standalone="no"?><!DOCTYPE svg PUBLIC "-//W3C//DTD SVG 1.1//EN" "http://www.w3.org/Graphics/SVG/1.1/DTD/svg11.dtd"><svg t="1604027341476" class="icon" viewBox="0 0 1024 1024" version="1.1" xmlns="http://www.w3.org/2000/svg" p-id="2040" xmlns:xlink="http://www.w3.org/1999/xlink" width="200" height="200"><defs><style type="text/css"></style></defs><path d="M634.7 629l-327 189.7 82.2 47.1L716.3 676z" fill="#212121" p-id="2041"></path><path d="M389.3 960l-81.6-47.1v-94.2l82.2 47.1z" fill="#333333" p-id="2042"></path><path d="M716.3 676v94.3L389.3 960l0.6-94.2z" fill="#474747" p-id="2043"></path><path d="M634.7 345.5l-81.6 47.1 82.2 47.1 81-47.1z" fill="#212121" p-id="2044"></path><path d="M634.7 722.2l-81.6-47.1V392.6l82.2 47.1z" fill="#333333" p-id="2045"></path><path d="M716.3 392.6v282.6l-81.6 47 0.6-282.5z" fill="#474747" p-id="2046"></path><path d="M551 391.2L307.7 533.4l82.2 47.1 242.7-142.2z" fill="#212121" p-id="2047"></path><path d="M389.3 674.7l-81.6-47.1v-94.2l82.2 47.1z" fill="#333333" p-id="2048"></path><path d="M632.6 438.3v94.2L389.3 674.7l0.6-94.2z" fill="#474747" p-id="2049"></path><path d="M389.3 204.8l-81.6 47.1 82.2 47.1 81-47.1z" fill="#212121" p-id="2050"></path><path d="M389.3 581.5l-81.6-47.1V251.9l82.2 47.1z" fill="#333333" p-id="2051"></path><path d="M470.9 251.9v282.5l-81.6 47.1 0.6-282.5z" fill="#474747" p-id="2052"></path><path d="M632.8 64L307.7 248.1l82.2 47.1 324.5-184.1z" fill="#212121" p-id="2053"></path><path d="M389.3 389.3l-81.6-47.1v-94.1l82.2 47.1z" fill="#333333" p-id="2054"></path><path d="M714.4 111.1v94.2l-325.1 184 0.6-94.1z" fill="#474747" p-id="2055"></path></svg>
