<?xml version="1.0" standalone="no"?><!DOCTYPE svg PUBLIC "-//W3C//DTD SVG 1.1//EN" "http://www.w3.org/Graphics/SVG/1.1/DTD/svg11.dtd"><svg t="1604027327542" class="icon" viewBox="0 0 1024 1024" version="1.1" xmlns="http://www.w3.org/2000/svg" p-id="1728" xmlns:xlink="http://www.w3.org/1999/xlink" width="200" height="200"><defs><style type="text/css"></style></defs><path d="M634 346.1l-81.7 47.2 82.3 47.2 81.1-47.2z" fill="#212121" p-id="1729"></path><path d="M634 818.9l-81.7-47.2V393.3l82.3 47.2z" fill="#333333" p-id="1730"></path><path d="M715.7 393.3v378.5L634 818.9l0.6-378.4z" fill="#474747" p-id="1731"></path><path d="M552 675.9l-163.7 96.8 82.3 47.2 163.2-96.8z" fill="#212121" p-id="1732"></path><path d="M470.1 914.3l-81.8-47.2v-94.4l82.3 47.2z" fill="#333333" p-id="1733"></path><path d="M633.8 723.1v94.4l-163.7 96.8 0.5-94.4z" fill="#474747" p-id="1734"></path><path d="M552 393.8L308.3 536.3l82.3 47.2L633.8 441z" fill="#212121" p-id="1735"></path><path d="M390 677.9l-81.7-47.2v-94.4l82.3 47.2z" fill="#333333" p-id="1736"></path><path d="M633.8 441v94.4L390 677.9l0.6-94.4z" fill="#474747" p-id="1737"></path><path d="M390 298.5l-81.7 47.2 82.3 47.2 81.1-47.2z" fill="#212121" p-id="1738"></path><path d="M390 960l-81.7-47.2V345.7l82.3 47.2z" fill="#333333" p-id="1739"></path><path d="M471.7 345.7v567.1L390 960l0.6-567.1z" fill="#474747" p-id="1740"></path><path d="M634 64L308.3 250.4l82.3 47.1 325.1-186.3z" fill="#212121" p-id="1741"></path><path d="M390 391.9l-81.7-47.2v-94.3l82.3 47.1z" fill="#333333" p-id="1742"></path><path d="M715.7 111.2v94.4L390 391.9l0.6-94.4z" fill="#474747" p-id="1743"></path></svg>
