<?xml version="1.0" standalone="no"?><!DOCTYPE svg PUBLIC "-//W3C//DTD SVG 1.1//EN" "http://www.w3.org/Graphics/SVG/1.1/DTD/svg11.dtd"><svg t="1604027391284" class="icon" viewBox="0 0 1024 1024" version="1.1" xmlns="http://www.w3.org/2000/svg" p-id="3603" xmlns:xlink="http://www.w3.org/1999/xlink" width="200" height="200"><defs><style type="text/css"></style></defs><path d="M633.9 64.3l-81.7 47.2 82.3 47.2 81.1-47.2z" fill="#212121" p-id="3604"></path><path d="M633.9 820.6l-81.7-47.1v-662l82.3 47.2z" fill="#333333" p-id="3605"></path><path d="M715.6 111.5v662l-81.7 47.1 0.6-661.9z" fill="#474747" p-id="3606"></path><path d="M552 675.8l-163.6 96.7 82.3 47.1 163-96.7z" fill="#212121" p-id="3607"></path><path d="M470.1 914l-81.7-47.2v-94.3l82.3 47.1z" fill="#333333" p-id="3608"></path><path d="M633.7 722.9v94.4L470.1 914l0.6-94.4z" fill="#474747" p-id="3609"></path><path d="M552 393.9L308.4 536.3l82.3 47.1 243-142.4z" fill="#212121" p-id="3610"></path><path d="M390.1 677.8l-81.7-47.2v-94.3l82.3 47.1z" fill="#333333" p-id="3611"></path><path d="M633.7 441v94.4L390.1 677.8l0.6-94.4z" fill="#474747" p-id="3612"></path><path d="M390.1 298.6l-81.7 47.2 82.3 47.1 81.1-47.1z" fill="#212121" p-id="3613"></path><path d="M390.1 959.7l-81.7-47.2V345.8l82.3 47.1z" fill="#333333" p-id="3614"></path><path d="M471.8 345.8v566.7l-81.7 47.2 0.6-566.8z" fill="#474747" p-id="3615"></path><path d="M552 110L308.4 250.5l82.3 47.2 243-140.5z" fill="#212121" p-id="3616"></path><path d="M390.1 392l-81.7-47.1v-94.3l82.3 47.1z" fill="#333333" p-id="3617"></path><path d="M633.7 157.2v94.4L390.1 392l0.6-94.3z" fill="#474747" p-id="3618"></path></svg>
